Coordinates
version=1
nRows=13
nColumns=40
inDegrees=yes

Units are S.I. units (second, meters, Newtons, ...)
Angles are in degrees.

endheader
time	pelvis_tilt	pelvis_list	pelvis_rotation	pelvis_tx	pelvis_ty	pelvis_tz	hip_flexion_r	hip_adduction_r	hip_rotation_r	knee_angle_r	knee_angle_r_beta	ankle_angle_r	subtalar_angle_r	mtp_angle_r	hip_flexion_l	hip_adduction_l	hip_rotation_l	knee_angle_l	knee_angle_l_beta	ankle_angle_l	subtalar_angle_l	mtp_angle_l	lumbar_extension	lumbar_bending	lumbar_rotation	arm_flex_r	arm_add_r	arm_rot_r	elbow_flex_r	pro_sup_r	wrist_flex_r	wrist_dev_r	arm_flex_l	arm_add_l	arm_rot_l	elbow_flex_l	pro_sup_l	wrist_flex_l	wrist_dev_l
     17.44500000	     -7.80131209	     -4.40584044	    -13.94432207	      0.95334623	      0.93450155	      0.45019446	     21.94993520	     -1.02737918	     -3.09585688	     12.44580662	     12.44580662	      8.59494763	     15.21713324	     11.23208380	      9.81245762	     -7.21205632	    -14.64248961	     15.46147687	     15.46147687	     13.28428205	    -12.54827904	      0.44875804	     -8.36342934	      5.40758276	      2.35471791	    -23.42310008	    -12.13480317	     -5.78356414	     31.30257874	     46.00789775	      0.00000000	      0.00000000	     39.93937497	    -23.67008056	    -14.57741587	     82.92113112	     48.84108773	      0.00000000	      0.00000000
     17.46621429	     -7.77851093	     -4.01932970	    -13.79046499	      0.95465136	      0.93366504	      0.45357522	     21.42503531	     -1.19721296	     -3.65869360	     11.92476931	     11.92476931	      8.21113155	     15.72294377	     10.79768649	      9.05872262	     -6.87465360	    -14.98892452	     14.69987360	     14.69987360	     13.33591908	    -11.77411215	     -0.18233082	     -8.05039818	      5.12147951	      2.38566192	    -22.97170902	    -12.34663819	     -5.68946521	     31.18911329	     46.01004240	      0.00000000	      0.00000000	     39.99664073	    -23.27868922	    -14.77142895	     83.39326753	     48.85525574	      0.00000000	      0.00000000
     17.48742857	     -7.91069904	     -3.71033450	    -13.53722855	      0.95602642	      0.93255125	      0.45714262	     21.14958125	     -1.25577501	     -4.00037279	     11.88967910	     11.88967910	      8.15286900	     15.59173878	     10.66395365	      8.73037236	     -6.69565106	    -14.91501398	     14.45845772	     14.45845772	     13.59749652	    -11.53148324	     -0.38297161	     -7.57349521	      4.96606894	      2.45114830	    -22.56393063	    -12.60755273	     -5.71272350	     31.28113920	     46.01156964	      0.00000000	      0.00000000	     39.84008523	    -22.95357602	    -14.70798773	     83.44365946	     48.84988927	      0.00000000	      0.00000000
     17.50864286	     -7.74300271	     -3.30986304	    -13.28469068	      0.95833582	      0.93192027	      0.46090119	     20.25107269	     -1.48972907	     -4.39746629	     11.36021342	     11.36021342	      6.25250971	     15.99275000	      4.89830049	      7.49595924	     -6.30230870	    -15.62731384	     13.12472501	     13.12472501	     12.90052086	    -10.18362305	     -2.77660370	     -7.28988617	      4.69430820	      1.97067630	    -21.33437011	    -13.04510751	     -5.26353578	     30.01255558	     46.04572005	      0.00000000	      0.00000000	     38.75633652	    -22.32594294	    -16.32014712	     84.48660712	     48.93116726	      0.00000000	      0.00000000
     17.52985714	     -7.74531634	     -3.07069683	    -12.93668371	      0.96045477	      0.93130944	      0.46471446	     19.78082877	     -1.56586919	     -4.64285002	     11.57341755	     11.57341755	      6.37034863	     15.76742715	      4.39845643	      6.76298401	     -6.11148946	    -15.54576131	     12.44602572	     12.44602572	     12.98570664	     -9.71389101	     -2.74507061	     -6.91992823	      4.69519396	      2.05893952	    -20.86229593	    -13.46591522	     -5.28371969	     30.09160197	     46.04849433	      0.00000000	      0.00000000	     37.99976017	    -21.71976674	    -16.10752177	     84.29641031	     48.90518100	      0.00000000	      0.00000000
     17.55107143	     -7.77312894	     -2.90526594	    -12.51577017	      0.96254666	      0.93073162	      0.46873652	     19.27435616	     -1.57587148	     -4.90056729	     11.72778549	     11.72778549	      6.67436450	     15.55757141	      4.08028288	      6.25186110	     -6.08210229	    -15.29815298	     12.16237949	     12.16237949	     13.19650196	     -9.39978946	     -2.81751150	     -6.61860077	      4.67891828	      2.17022676	    -20.31805700	    -13.86911383	     -5.32847021	     30.22453854	     46.05138635	      0.00000000	      0.00000000	     37.22986733	    -21.04935765	    -15.90843064	     84.09007631	     48.88183492	      0.00000000	      0.00000000
     17.57228571	     -7.45254945	     -2.73721008	    -12.19479127	      0.96521493	      0.93098490	      0.47308613	     18.45584257	     -1.64511734	     -4.98090534	     11.96632250	     11.96632250	      6.57388042	     15.34968011	      2.41271255	      4.75153385	     -5.85303831	    -15.51275232	     10.77337381	     10.77337381	     13.09963154	     -8.26480936	     -2.56148154	     -6.58390366	      4.65669054	      2.11696765	    -19.59934357	    -14.35539347	     -5.33455097	     30.05775108	     46.06610138	      0.00000000	      0.00000000	     35.97366439	    -20.28023996	    -16.28422576	     83.60535909	     48.87945830	      0.00000000	      0.00000000
     17.59350000	     -7.43407384	     -2.78880336	    -11.71302145	      0.96725211	      0.93080435	      0.47749529	     17.92627643	     -1.45426218	     -5.23393526	     12.18029631	     12.18029631	      6.92762072	     15.08895660	      1.99029234	      4.27427471	     -6.12274127	    -15.19682229	     10.69715011	     10.69715011	     13.21925484	     -8.04066827	     -2.55569764	     -6.39898372	      4.86231496	      2.20175896	    -18.97466185	    -14.75254939	     -5.37782694	     30.17765708	     46.07021009	      0.00000000	      0.00000000	     34.75839133	    -19.36749705	    -16.04481318	     83.21874788	     48.84656854	      0.00000000	      0.00000000
     17.61471429	     -7.27179926	     -2.92869222	    -11.26706029	      0.96940670	      0.93099426	      0.48241062	     17.05825896	     -1.07246590	     -5.10829736	     11.89928459	     11.89928459	      5.83328729	     14.15624857	     -2.36473941	      3.52764148	     -6.51507227	    -15.29185652	     10.51590200	     10.51590200	     13.84550783	     -6.97712066	     -1.34429345	     -6.33303171	      5.07886589	      1.73886711	    -17.46993255	    -15.22391939	     -5.18290309	     28.83667896	     46.12809347	      0.00000000	      0.00000000	     33.08509865	    -18.54881207	    -17.39719761	     82.49159782	     48.86693930	      0.00000000	      0.00000000
     17.63592857	     -7.19857253	     -3.07758564	    -10.74347301	      0.97114725	      0.93113355	      0.48727565	     16.54860417	     -0.76429274	     -5.38295427	     12.15499175	     12.15499175	      6.28135169	     13.82537428	     -2.57587224	      3.06959187	     -6.95106984	    -14.95675884	     10.53981570	     10.53981570	     13.85377838	     -6.78116757	     -1.27458935	     -6.31198956	      5.24304713	      1.79424524	    -16.75978005	    -15.49898105	     -5.21542650	     29.05442075	     46.12797550	      0.00000000	      0.00000000	     31.61981822	    -17.57968938	    -17.00661566	     81.90356742	     48.81810687	      0.00000000	      0.00000000
     17.65714286	     -7.10884062	     -3.30304265	    -10.20646247	      0.97268054	      0.93138098	      0.49232508	     16.03976659	     -0.34984902	     -5.62526372	     12.39716142	     12.39716142	      6.68993141	     13.35858522	     -2.74415741	      2.64376174	     -7.50661850	    -14.63646045	     10.64101842	     10.64101842	     13.86104184	     -6.57397214	     -1.13981239	     -6.34087811	      5.45096727	      1.78656191	    -15.96355482	    -15.76708863	     -5.25079179	     29.27655023	     46.12863633	      0.00000000	      0.00000000	     30.00118697	    -16.68535803	    -16.65567453	     81.04919798	     48.76552502	      0.00000000	      0.00000000
     17.67835714	     -7.01562514	     -3.48700996	     -9.63928771	      0.97396465	      0.93169158	      0.49741022	     15.55224702	      0.03480805	     -5.88267381	     12.59782260	     12.59782260	      7.05629915	     12.86517452	     -2.86666532	      2.32753808	     -8.05655064	    -14.28003246	     10.87177355	     10.87177355	     13.84232655	     -6.37499293	     -1.02184629	     -6.42606589	      5.53240206	      1.78060759	    -15.06801751	    -15.91171081	     -5.26692943	     29.53639478	     46.12698764	      0.00000000	      0.00000000	     28.32252174	    -15.71678359	    -16.27656670	     80.10913903	     48.70948599	      0.00000000	      0.00000000
     17.69957143	     -7.05926742	     -3.86264692	     -9.01669738	      0.97486053	      0.93192008	      0.50279566	     15.08785175	      0.79805955	     -5.50798870	     12.53865636	     12.53865636	      7.27387990	     11.15440114	     -2.58776640	      2.53879571	     -9.03994061	    -14.19100123	     11.87380747	     11.87380747	     14.43224628	     -5.60457608	     -0.19975567	     -6.27014215	      5.85515230	      1.00653157	    -13.43623734	    -16.16051996	     -5.20482999	     29.38861659	     46.14413066	      0.00000000	      0.00000000	     26.64280130	    -15.64419743	    -16.04657134	     77.09880174	     48.61286959	      0.00000000	      0.00000000
